  <svg version="1.1" id="Layer_1" xmlns="http://www.w3.org/2000/svg" xmlns:xlink="http://www.w3.org/1999/xlink" x="0px" y="0px" viewBox="0 0 512 512" enable-background="new 0 0 512 512" xml:space="preserve"> <g id="hairstyle_1_1_"> <polygon fill="#EAC6BB" points="359.996,139.344 290.668,78.672 256.668,73.344 155.996,106.672 130.668,166.016 130.668,216.016 159.996,282.672 205.996,330.672 266.668,351.344 313.996,329.344 358.668,282.672 382.668,174.016 "></polygon> <polygon fill="#965353" points="365.34,70.672 299.996,15.328 211.332,15.328 159.996,40 122.668,116.672 126.668,162.672 181.996,162.672 253.199,137.328 327.34,118 386.668,156 "></polygon> <polygon fill="#5D9CEC" points="416.996,379 344.996,337 344.996,294 295.996,346 246.996,358 164.996,304 168.496,336.75 147.996,363 58.996,397 17.996,437 17.996,500 488.402,500 481.996,408.328 "></polygon> <path d="M460.215,386.359l-1.812-0.516c-26.469-7.125-35.438-13.938-47.219-18.422c-41.781-15.922-52.656-27.406-55.438-32.828 c-0.109-0.188-0.188-0.406-0.281-0.594l-0.25-36.531c22.359-29.938,38.344-67.281,38.344-105.969c0,0,15.094-64.328-21-124.859 l-0.031-0.266c-0.031,0-0.062,0-0.125,0c-7.828-13.062-18.031-25.938-31.312-37.969C327.215,15.844,292.934,0,251.613,0 c-28.305,0-59.914,7.422-90.547,28.406c-59.445,40.719-53.445,143.375-53.445,143.375s4.164,1.062,11.648,2.031 c-0.539,5.75-0.828,11.656-0.828,17.688c0,38.688,15.977,76.031,38.336,105.969L156.52,334c-0.086,0.188-0.164,0.406-0.266,0.594 c-2.781,5.422-13.656,16.906-55.453,32.828c-11.781,4.484-20.734,11.297-47.211,18.422l-1.812,0.516 c-24.094,7.969-40.305,30.312-40.305,55.531V512h244.523h244.531v-70.109C500.527,416.672,484.309,394.328,460.215,386.359z M363.324,126.656c-4.672-5.297-9.922-9.625-15.609-12.969c4.297-10.469,9.75-16.734,14.578-20.5 c5.875,13.375,9.812,27.875,11.734,43.156c0.297,2.391,0.531,4.719,0.719,7C371.309,136.922,367.559,131.438,363.324,126.656z M133.004,119.406c3.062-15.906,7.656-29.953,13.656-41.75c6.984-13.75,15.883-24.406,26.461-31.656 c23.906-16.375,50.312-24.656,78.492-24.656c36.352,0,65.383,14.031,75.164,22.875c9.938,9,18.438,19.047,25.406,30 c-8.469,5.688-17.859,15.438-24.547,32.156c-3.516-0.594-7.109-0.906-10.797-0.906c-15.938,0-33.094,5.391-52.469,16.469 c-46.672,26.656-89.836,32.25-117.836,32.25c-6.711,0-12.602-0.312-17.508-0.75C129.441,144.344,130.496,132.391,133.004,119.406z M140.559,175.438c1.922,0.062,3.914,0.094,5.977,0.094c31.219,0,78.008-6.281,128.43-35.078 c16.969-9.703,30.688-13.641,41.875-13.641c26.844,0,39.031,22.781,46.344,43.406c2.5,7.062,5.625,11.938,8.922,15.266 c0.078,1.984,0.109,3.984,0.109,6.016c0,35.125-15.984,73.5-43.844,105.25c-12.25,13.969-25.969,25.641-39.688,33.781 c-12.234,7.25-23.844,11.25-32.688,11.25s-20.453-4-32.688-11.25c-13.719-8.141-27.438-19.812-39.688-33.781 c-27.859-31.75-43.844-70.125-43.844-105.25C139.777,186.031,140.043,180.688,140.559,175.438z M479.184,490.656H255.996H32.801 v-48.766c0-15.906,10.164-29.984,25.328-35.156l1.195-0.359c19.953-5.359,30.961-10.625,39.812-14.875 c3.422-1.625,6.383-3.062,9.258-4.156c23.891-9.094,56.805-23.453,66.828-42.984c0.383-0.75,0.664-1.391,0.82-1.766l1.781-3.938 l0.031-4.516l0.086-12.328c25.68,25.406,55.039,41.312,78.055,41.312s52.375-15.906,78.062-41.312l0.078,12.328l0.031,4.516 l1.781,3.938c0.141,0.344,0.422,1,0.797,1.734c10.047,19.562,42.969,33.922,66.875,43.031c2.844,1.078,5.812,2.516,9.234,4.141 c8.859,4.25,19.859,9.516,39.812,14.875l1.203,0.359c15.156,5.172,25.312,19.25,25.312,35.156V490.656z"></path> </g> </svg> 