<svg width="29" height="29" viewBox="0 0 29 29" fill="none" xmlns="http://www.w3.org/2000/svg">
<g clip-path="url(#clip0_3159_30452)">
<path d="M14.5 2.98594C18.2406 2.98594 18.6836 3.00234 20.1547 3.06797C21.5219 3.12812 22.2602 3.35781 22.7523 3.54922C23.4031 3.80078 23.8734 4.10703 24.3602 4.59375C24.8523 5.08594 25.1531 5.55078 25.4047 6.20156C25.5961 6.69375 25.8258 7.4375 25.8859 8.79922C25.9516 10.2758 25.968 10.7188 25.968 14.4539C25.968 18.1945 25.9516 18.6375 25.8859 20.1086C25.8258 21.4758 25.5961 22.2141 25.4047 22.7063C25.1531 23.357 24.8469 23.8273 24.3602 24.3141C23.868 24.8062 23.4031 25.107 22.7523 25.3586C22.2602 25.55 21.5164 25.7797 20.1547 25.8398C18.6781 25.9055 18.2352 25.9219 14.5 25.9219C10.7594 25.9219 10.3164 25.9055 8.84531 25.8398C7.47813 25.7797 6.73984 25.55 6.24766 25.3586C5.59688 25.107 5.12656 24.8008 4.63984 24.3141C4.14766 23.8219 3.84687 23.357 3.59531 22.7063C3.40391 22.2141 3.17422 21.4703 3.11406 20.1086C3.04844 18.632 3.03203 18.1891 3.03203 14.4539C3.03203 10.7133 3.04844 10.2703 3.11406 8.79922C3.17422 7.43203 3.40391 6.69375 3.59531 6.20156C3.84687 5.55078 4.15313 5.08047 4.63984 4.59375C5.13203 4.10156 5.59688 3.80078 6.24766 3.54922C6.73984 3.35781 7.48359 3.12812 8.84531 3.06797C10.3164 3.00234 10.7594 2.98594 14.5 2.98594ZM14.5 0.464844C10.6992 0.464844 10.2234 0.48125 8.73047 0.546875C7.24297 0.6125 6.22031 0.853125 5.33437 1.19766C4.41016 1.55859 3.62813 2.03437 2.85156 2.81641C2.06953 3.59297 1.59375 4.375 1.23281 5.29375C0.888281 6.18516 0.647656 7.20234 0.582031 8.68984C0.516406 10.1883 0.5 10.6641 0.5 14.4648C0.5 18.2656 0.516406 18.7414 0.582031 20.2344C0.647656 21.7219 0.888281 22.7445 1.23281 23.6305C1.59375 24.5547 2.06953 25.3367 2.85156 26.1133C3.62813 26.8898 4.41016 27.3711 5.32891 27.7266C6.22031 28.0711 7.2375 28.3117 8.725 28.3773C10.218 28.443 10.6937 28.4594 14.4945 28.4594C18.2953 28.4594 18.7711 28.443 20.2641 28.3773C21.7516 28.3117 22.7742 28.0711 23.6602 27.7266C24.5789 27.3711 25.3609 26.8898 26.1375 26.1133C26.9141 25.3367 27.3953 24.5547 27.7508 23.6359C28.0953 22.7445 28.3359 21.7273 28.4016 20.2398C28.4672 18.7469 28.4836 18.2711 28.4836 14.4703C28.4836 10.6695 28.4672 10.1937 28.4016 8.70078C28.3359 7.21328 28.0953 6.19062 27.7508 5.30469C27.4062 4.375 26.9305 3.59297 26.1484 2.81641C25.3719 2.03984 24.5898 1.55859 23.6711 1.20312C22.7797 0.858594 21.7625 0.617969 20.275 0.552344C18.7766 0.48125 18.3008 0.464844 14.5 0.464844Z" fill="#000100"/>
<path d="M14.5 7.27344C10.5297 7.27344 7.30859 10.4945 7.30859 14.4648C7.30859 18.4352 10.5297 21.6562 14.5 21.6562C18.4703 21.6562 21.6914 18.4352 21.6914 14.4648C21.6914 10.4945 18.4703 7.27344 14.5 7.27344ZM14.5 19.1297C11.9242 19.1297 9.83516 17.0406 9.83516 14.4648C9.83516 11.8891 11.9242 9.8 14.5 9.8C17.0758 9.8 19.1648 11.8891 19.1648 14.4648C19.1648 17.0406 17.0758 19.1297 14.5 19.1297Z" fill="#000100"/>
<path d="M23.6547 6.9875C23.6547 7.91719 22.9 8.66641 21.9758 8.66641C21.0461 8.66641 20.2969 7.91172 20.2969 6.9875C20.2969 6.05781 21.0516 5.30859 21.9758 5.30859C22.9 5.30859 23.6547 6.06328 23.6547 6.9875Z" fill="#000100"/>
</g>
<defs>
<clipPath id="clip0_3159_30452">
<rect width="28" height="28" fill="white" transform="translate(0.5 0.464844)"/>
</clipPath>
</defs>
</svg>
