<svg width="29" height="29" viewBox="0 0 29 29" fill="none" xmlns="http://www.w3.org/2000/svg">
<g clip-path="url(#clip0_3159_30440)">
<path d="M26.4331 0.464844H2.56694C2.01876 0.464844 1.49302 0.682611 1.10539 1.07024C0.717767 1.45787 0.5 1.9836 0.5 2.53179V26.3979C0.5 26.9461 0.717767 27.4718 1.10539 27.8595C1.49302 28.2471 2.01876 28.4648 2.56694 28.4648H26.4331C26.9812 28.4648 27.507 28.2471 27.8946 27.8595C28.2822 27.4718 28.5 26.9461 28.5 26.3979V2.53179C28.5 1.9836 28.2822 1.45787 27.8946 1.07024C27.507 0.682611 26.9812 0.464844 26.4331 0.464844ZM8.84556 24.3173H4.63583V10.9454H8.84556V24.3173ZM6.73778 9.09234C6.26026 9.08965 5.79423 8.94557 5.39852 8.67828C5.00281 8.41099 4.69515 8.03246 4.51436 7.59048C4.33357 7.1485 4.28776 6.66287 4.3827 6.19487C4.47765 5.72688 4.7091 5.2975 5.04785 4.96092C5.38659 4.62434 5.81745 4.39566 6.28604 4.30371C6.75464 4.21177 7.23996 4.2607 7.68078 4.44433C8.12159 4.62795 8.49813 4.93804 8.76288 5.33546C9.02762 5.73288 9.16871 6.19982 9.16833 6.67734C9.17284 6.99705 9.11293 7.31439 8.99218 7.61045C8.87143 7.90651 8.69231 8.17523 8.4655 8.40059C8.23869 8.62595 7.96882 8.80334 7.67199 8.92219C7.37517 9.04103 7.05745 9.0989 6.73778 9.09234ZM24.3622 24.329H20.1544V17.0237C20.1544 14.8693 19.2386 14.2043 18.0564 14.2043C16.8081 14.2043 15.5831 15.1454 15.5831 17.0782V24.329H11.3733V10.9551H15.4217V12.8082H15.4761C15.8825 11.9857 17.3058 10.5798 19.4778 10.5798C21.8267 10.5798 24.3642 11.974 24.3642 16.0573L24.3622 24.329Z" fill="#0A66C2"/>
</g>
<defs>
<clipPath id="clip0_3159_30440">
<rect width="28" height="28" fill="white" transform="translate(0.5 0.464844)"/>
</clipPath>
</defs>
</svg>
