<svg width="29" height="29" viewBox="0 0 29 29" fill="none" xmlns="http://www.w3.org/2000/svg">
<g clip-path="url(#clip0_3159_30447)">
<path d="M14.5 28.4648C22.232 28.4648 28.5 22.1968 28.5 14.4648C28.5 6.73286 22.232 0.464844 14.5 0.464844C6.76801 0.464844 0.5 6.73286 0.5 14.4648C0.5 22.1968 6.76801 28.4648 14.5 28.4648Z" fill="url(#paint0_linear_3159_30447)"/>
<path fill-rule="evenodd" clip-rule="evenodd" d="M6.83719 14.3187C10.9185 12.5406 13.64 11.3683 15.0017 10.8019C18.8896 9.18482 19.6975 8.90391 20.2241 8.89463C20.3399 8.89259 20.5988 8.92129 20.7666 9.0574C20.9082 9.17232 20.9472 9.32757 20.9658 9.43654C20.9845 9.5455 21.0077 9.79372 20.9892 9.98767C20.7785 12.2014 19.8669 17.5735 19.4031 20.0529C19.2069 21.1021 18.8204 21.4538 18.4463 21.4883C17.6333 21.5631 17.016 20.951 16.2285 20.4348C14.9963 19.6271 14.3002 19.1243 13.1042 18.3361C11.722 17.4252 12.618 16.9246 13.4057 16.1064C13.6119 15.8923 17.194 12.6341 17.2633 12.3385C17.272 12.3016 17.2801 12.1638 17.1982 12.091C17.1163 12.0183 16.9955 12.0431 16.9083 12.0629C16.7848 12.091 14.8163 13.392 11.0031 15.9661C10.4443 16.3498 9.93825 16.5367 9.48482 16.5269C8.98494 16.5161 8.02339 16.2443 7.30857 16.0119C6.43182 15.7269 5.735 15.5762 5.79568 15.0922C5.82728 14.8401 6.17445 14.5823 6.83719 14.3187Z" fill="white"/>
</g>
<defs>
<linearGradient id="paint0_linear_3159_30447" x1="14.5" y1="0.464844" x2="14.5" y2="28.2572" gradientUnits="userSpaceOnUse">
<stop stop-color="#2AABEE"/>
<stop offset="1" stop-color="#229ED9"/>
</linearGradient>
<clipPath id="clip0_3159_30447">
<rect width="28" height="28" fill="white" transform="translate(0.5 0.464844)"/>
</clipPath>
</defs>
</svg>
