<svg width="29" height="29" viewBox="0 0 29 29" fill="none" xmlns="http://www.w3.org/2000/svg">
<g clip-path="url(#clip0_3159_30443)">
<path d="M27.9419 7.68156C27.7836 7.08588 27.4716 6.54222 27.0372 6.10499C26.6027 5.66777 26.0611 5.35231 25.4664 5.1902C23.2773 4.60156 14.5273 4.60156 14.5273 4.60156C14.5273 4.60156 5.77734 4.60156 3.58825 5.1902C2.9936 5.35231 2.45195 5.66777 2.01751 6.10499C1.58308 6.54222 1.2711 7.08588 1.1128 7.68156C0.527344 9.8802 0.527344 14.4652 0.527344 14.4652C0.527344 14.4652 0.527344 19.0502 1.1128 21.2488C1.2711 21.8445 1.58308 22.3882 2.01751 22.8254C2.45195 23.2626 2.9936 23.5781 3.58825 23.7402C5.77734 24.3288 14.5273 24.3288 14.5273 24.3288C14.5273 24.3288 23.2773 24.3288 25.4664 23.7402C26.0611 23.5781 26.6027 23.2626 27.0372 22.8254C27.4716 22.3882 27.7836 21.8445 27.9419 21.2488C28.5273 19.0502 28.5273 14.4652 28.5273 14.4652C28.5273 14.4652 28.5273 9.8802 27.9419 7.68156Z" fill="#FF0302"/>
<path d="M11.6641 18.6276V10.3008L18.9822 14.4642L11.6641 18.6276Z" fill="#FEFEFE"/>
</g>
<defs>
<clipPath id="clip0_3159_30443">
<rect width="28" height="28" fill="white" transform="translate(0.5 0.464844)"/>
</clipPath>
</defs>
</svg>
